# xmcd CD database file
#
# Track frame offsets:
#	150
#	14143
#	29029
#	41946
#	62887
#	75041
#	86363
#	95984
#	111234
#	130252
#
# Disc length: 1917 seconds
#
# Revision: 0
# Processed by: cddbd v1.5.1PL0 Copyright (c) Steve Scherf et al.
# Submitted via: CDex 1.51
#
DISCID=88077b0a
DTITLE=Bryon Hildreth - In God's Country
DYEAR=1900
DGENRE=Country
TTITLE0=Just As I Am
TTITLE1=Three Wooden Crosses
TTITLE2=This World Is Not My Home
TTITLE3=When Mama Prayed
TTITLE4=Amazing Grace
TTITLE5=Victory In Jesus
TTITLE6=God's Never Too Late
TTITLE7=One Perfect Son
TTITLE8=I'm Not Gonna Fall To Pieces
TTITLE9=The Old Rugged Cross
EXTD=
EXTT0=
EXTT1=
EXTT2=
EXTT3=
EXTT4=
EXTT5=
EXTT6=
EXTT7=
EXTT8=
EXTT9=
PLAYORDER=
